<svg xmlns="http://www.w3.org/2000/svg" viewBox="0 0 400 400" width="400" height="400" role="img" aria-label="EOF — Eyes of the Future">
  <title>EOF V4 symbol — accent tile</title>
  <rect width="400" height="400" rx="88" fill="#DBFF3C"></rect>
  <g transform="translate(200 200) scale(0.7) translate(-400 -150)">
    <path id="upper-lid" d="M303.9 158.4C305.9 157.6 308.5 156.4 310.8 155.4C313.2 154.3 315.6 153.3 318 152.2C320.3 151.1 322.4 150.4 325.1 148.8C327.9 147.2 331.9 144.6 334.5 142.7C337.2 140.8 339 139.2 341 137.4C343.1 135.7 345 133.9 347 132.1C348.9 130.3 350.7 128.6 352.5 126.8C354.3 125.1 356 123.4 357.8 121.7C359.5 120 361.2 118.3 362.9 116.7C364.6 115.1 366.2 113.5 367.9 112C369.5 110.5 371.2 109 372.8 107.6C374.5 106.2 376.1 104.8 377.8 103.5C379.4 102.3 381 101.1 382.7 100C384.3 98.9 385.9 97.9 387.6 97.1C389.2 96.2 390.8 95.5 392.4 94.9C394 94.3 395.4 93.8 397.2 93.4C398.9 93.1 400.7 92.9 402.7 92.8C404.8 92.6 407.2 92.6 409.4 92.6C411.6 92.5 413.9 92.6 416.1 92.7C418.3 92.8 420.5 93 422.6 93.3C424.8 93.6 427 93.9 429.2 94.3C431.3 94.7 433.5 95.2 435.6 95.8C437.7 96.4 439.8 97 441.9 97.8C444 98.5 446 99.3 448.1 100.2C450.1 101.1 452.1 102.1 454.1 103.1C456.1 104.2 458 105.3 459.9 106.5C461.8 107.7 463.7 109 465.6 110.3C467.5 111.7 469.7 113.6 471 114.5C472.4 115.5 472.6 115.6 473.5 116C474.3 116.4 475.3 116.7 476.2 116.9C477.2 117 478.2 117 479.1 116.9C480 116.9 481 116.6 481.9 116.3C482.8 116 483.7 115.5 484.4 114.9C485.2 114.4 485.9 113.7 486.5 113C487.1 112.2 487.6 111.4 488 110.5C488.4 109.7 488.7 108.7 488.9 107.8C489 106.8 489 105.8 488.9 104.9C488.9 104 488.6 103 488.3 102.1C488 101.2 487.5 100.3 486.9 99.6C486.4 98.8 486.3 98.6 485 97.5C483.6 96.3 480.9 94.2 478.7 92.6C476.6 91 474.4 89.4 472.2 87.9C470 86.3 467.8 84.9 465.4 83.4C463.1 82 460.8 80.7 458.4 79.4C456 78.1 453.5 76.8 451 75.7C448.6 74.5 446 73.4 443.4 72.4C440.9 71.4 438.3 70.5 435.7 69.6C433 68.8 430.4 68 427.7 67.3C425 66.7 422.3 66.1 419.6 65.5C416.9 65 414.2 64.6 411.5 64.2C408.8 63.8 406.2 63.5 403.3 63.3C400.4 63.1 397.3 62.8 394.1 63C390.9 63.2 387.4 63.6 384.3 64.3C381.1 64.9 378 65.8 375.1 66.8C372.1 67.8 369.3 69 366.6 70.3C363.8 71.5 361.3 72.9 358.8 74.3C356.2 75.8 353.8 77.3 351.5 78.8C349.1 80.4 346.9 81.9 344.7 83.5C342.5 85.1 340.4 86.7 338.4 88.3C336.3 89.9 334.3 91.5 332.3 93.1C330.3 94.7 328.4 96.3 326.5 97.9C324.6 99.5 322.8 101 320.9 102.5C319.1 104 317.3 105.5 315.6 106.9C313.9 108.3 311.9 109.8 310.5 110.8C309.2 111.8 309 112 307.5 112.9C305.9 113.7 303.4 114.9 301.2 115.9C299.1 116.8 297 117.8 294.8 118.7C292.6 119.7 290 120.7 288.1 121.6C286.3 122.5 285 123.2 283.6 124.3C282.3 125.3 281 126.6 280 128C279 129.4 278.1 131 277.4 132.6C276.8 134.2 276.3 135.9 276.1 137.6C275.9 139.3 276 141.1 276.2 142.9C276.5 144.6 276.9 146.3 277.6 147.9C278.3 149.5 279.2 151 280.3 152.4C281.3 153.7 282.6 155 284 156C285.4 157 287 157.9 288.6 158.6C290.2 159.2 291.9 159.7 293.6 159.9C295.3 160.1 297.1 160 298.9 159.8C300.6 159.5 301.9 159.1 303.9 158.4Z" fill="#000000"></path>
    <path id="lower-lid" d="M496.1 141.6C494.1 142.4 491.5 143.6 489.2 144.6C486.8 145.7 484.4 146.7 482 147.8C479.7 148.9 477.6 149.6 474.9 151.2C472.1 152.8 468.1 155.4 465.5 157.3C462.8 159.2 461 160.8 459 162.6C456.9 164.3 455 166.1 453 167.9C451.1 169.7 449.3 171.4 447.5 173.2C445.7 174.9 444 176.6 442.2 178.3C440.5 180 438.8 181.7 437.1 183.3C435.4 184.9 433.8 186.5 432.1 188C430.5 189.5 428.8 191 427.2 192.4C425.5 193.8 423.9 195.2 422.2 196.5C420.6 197.7 419 198.9 417.3 200C415.7 201.1 414.1 202.1 412.4 202.9C410.8 203.8 409.2 204.5 407.6 205.1C406 205.7 404.6 206.2 402.8 206.6C401.1 206.9 399.3 207.1 397.3 207.2C395.2 207.4 392.8 207.4 390.6 207.4C388.4 207.5 386.1 207.4 383.9 207.3C381.7 207.2 379.5 207 377.4 206.7C375.2 206.4 373 206.1 370.8 205.7C368.7 205.3 366.5 204.8 364.4 204.2C362.3 203.6 360.2 203 358.1 202.2C356 201.5 354 200.7 351.9 199.8C349.9 198.9 347.9 197.9 345.9 196.9C343.9 195.8 342 194.7 340.1 193.5C338.2 192.3 336.3 191 334.4 189.7C332.5 188.3 330.3 186.4 329 185.5C327.6 184.5 327.4 184.4 326.5 184C325.7 183.6 324.7 183.3 323.8 183.1C322.8 183 321.8 183 320.9 183.1C320 183.1 319 183.4 318.1 183.7C317.2 184 316.3 184.5 315.6 185.1C314.8 185.6 314.1 186.3 313.5 187C312.9 187.8 312.4 188.6 312 189.5C311.6 190.3 311.3 191.3 311.1 192.2C311 193.2 311 194.2 311.1 195.1C311.1 196 311.4 197 311.7 197.9C312 198.8 312.5 199.7 313.1 200.4C313.6 201.2 313.7 201.4 315 202.5C316.4 203.7 319.1 205.8 321.3 207.4C323.4 209 325.6 210.6 327.8 212.1C330 213.7 332.2 215.1 334.6 216.6C336.9 218 339.2 219.3 341.6 220.6C344 221.9 346.5 223.2 349 224.3C351.4 225.5 354 226.6 356.6 227.6C359.1 228.6 361.7 229.5 364.3 230.4C367 231.2 369.6 232 372.3 232.7C375 233.3 377.7 233.9 380.4 234.5C383.1 235 385.8 235.4 388.5 235.8C391.2 236.2 393.8 236.5 396.7 236.7C399.6 236.9 402.7 237.2 405.9 237C409.1 236.8 412.6 236.4 415.7 235.7C418.9 235.1 422 234.2 424.9 233.2C427.9 232.2 430.7 231 433.4 229.7C436.2 228.5 438.7 227.1 441.2 225.7C443.8 224.2 446.2 222.7 448.5 221.2C450.9 219.6 453.1 218.1 455.3 216.5C457.5 214.9 459.6 213.3 461.6 211.7C463.7 210.1 465.7 208.5 467.7 206.9C469.7 205.3 471.6 203.7 473.5 202.1C475.4 200.5 477.2 199 479.1 197.5C480.9 196 482.7 194.5 484.4 193.1C486.1 191.7 488.1 190.2 489.5 189.2C490.8 188.2 491 188 492.5 187.1C494.1 186.3 496.6 185.1 498.8 184.1C500.9 183.2 503 182.2 505.2 181.3C507.4 180.3 510 179.3 511.9 178.4C513.7 177.5 515 176.8 516.4 175.7C517.7 174.7 519 173.4 520 172C521 170.6 521.9 169 522.6 167.4C523.2 165.8 523.7 164.1 523.9 162.4C524.1 160.7 524 158.9 523.8 157.1C523.5 155.4 523.1 153.7 522.4 152.1C521.7 150.5 520.8 149 519.7 147.6C518.7 146.3 517.4 145 516 144C514.6 143 513 142.1 511.4 141.4C509.8 140.8 508.1 140.3 506.4 140.1C504.7 139.9 502.9 140 501.1 140.2C499.4 140.5 498.1 140.9 496.1 141.6Z" fill="#000000"></path>
    <path id="iris" d="M400 116A34 34 0 1 0 400 184A34 34 0 1 0 400 116ZM414 128A10 10 0 1 0 414 148A10 10 0 1 0 414 128Z" fill="#000000" fill-rule="evenodd"></path>
  </g>
</svg>